<svg width="38" height="48" viewBox="0 0 38 48" fill="none" xmlns="http://www.w3.org/2000/svg">
<path d="M37.2857 20.5714H22.2857C20.9217 20.5714 19.6136 20.0296 18.6492 19.0651C17.6847 18.1006 17.1429 16.7925 17.1429 15.4286V0.428571C17.1429 0.314907 17.0977 0.205898 17.0173 0.125526C16.937 0.045153 16.828 0 16.7143 0H6.85714C5.03852 0 3.29437 0.722447 2.00841 2.00841C0.722447 3.29437 0 5.03852 0 6.85714V41.1429C0 42.9615 0.722447 44.7056 2.00841 45.9916C3.29437 47.2776 5.03852 48 6.85714 48H30.8571C32.6758 48 34.4199 47.2776 35.7059 45.9916C36.9918 44.7056 37.7143 42.9615 37.7143 41.1429V21C37.7143 20.8863 37.6691 20.7773 37.5888 20.697C37.5084 20.6166 37.3994 20.5714 37.2857 20.5714ZM27.4286 37.7143H10.2857C9.83106 37.7143 9.39502 37.5337 9.07353 37.2122C8.75204 36.8907 8.57143 36.4547 8.57143 36C8.57143 35.5453 8.75204 35.1093 9.07353 34.7878C9.39502 34.4663 9.83106 34.2857 10.2857 34.2857H27.4286C27.8832 34.2857 28.3193 34.4663 28.6408 34.7878C28.9623 35.1093 29.1429 35.5453 29.1429 36C29.1429 36.4547 28.9623 36.8907 28.6408 37.2122C28.3193 37.5337 27.8832 37.7143 27.4286 37.7143ZM27.4286 29.1429H10.2857C9.83106 29.1429 9.39502 28.9622 9.07353 28.6408C8.75204 28.3193 8.57143 27.8832 8.57143 27.4286C8.57143 26.9739 8.75204 26.5379 9.07353 26.2164C9.39502 25.8949 9.83106 25.7143 10.2857 25.7143H27.4286C27.8832 25.7143 28.3193 25.8949 28.6408 26.2164C28.9623 26.5379 29.1429 26.9739 29.1429 27.4286C29.1429 27.8832 28.9623 28.3193 28.6408 28.6408C28.3193 28.9622 27.8832 29.1429 27.4286 29.1429Z" fill="#72AD11"/>
<path d="M36.3449 16.7775L20.9366 1.36928C20.9067 1.3395 20.8686 1.31923 20.8271 1.31104C20.7857 1.30284 20.7427 1.30709 20.7037 1.32323C20.6646 1.33937 20.6312 1.3667 20.6077 1.40178C20.5841 1.43685 20.5715 1.4781 20.5713 1.52035V15.4286C20.5713 15.8832 20.7519 16.3193 21.0734 16.6408C21.3949 16.9622 21.8309 17.1429 22.2856 17.1429H36.1938C36.236 17.1427 36.2773 17.13 36.3124 17.1065C36.3474 17.0829 36.3748 17.0495 36.3909 17.0105C36.4071 16.9714 36.4113 16.9285 36.4031 16.887C36.3949 16.8456 36.3747 16.8075 36.3449 16.7775Z" fill="#72AD11"/>
</svg>
