<svg width="54" height="54" viewBox="0 0 54 54" fill="none" xmlns="http://www.w3.org/2000/svg">
<path d="M27 3C13.7465 3 3 13.7465 3 27C3 40.2535 13.7465 51 27 51C40.2535 51 51 40.2535 51 27C51 13.7465 40.2535 3 27 3Z" stroke="#72AD11" stroke-width="5" stroke-miterlimit="10"/>
<path d="M23.3479 23.3478H27.5218V38.4783" stroke="#72AD11" stroke-width="5" stroke-linecap="round" stroke-linejoin="round"/>
<path d="M21.7827 39H33.261" stroke="#72AD11" stroke-width="5" stroke-miterlimit="10" stroke-linecap="round"/>
<path d="M26.9999 11.6087C26.3292 11.6087 25.6735 11.8076 25.1158 12.1802C24.5581 12.5529 24.1235 13.0825 23.8668 13.7022C23.6101 14.3219 23.543 15.0038 23.6738 15.6616C23.8047 16.3195 24.1277 16.9237 24.6019 17.398C25.0762 17.8723 25.6805 18.1953 26.3383 18.3261C26.9962 18.457 27.6781 18.3898 28.2977 18.1332C28.9174 17.8765 29.4471 17.4418 29.8197 16.8841C30.1924 16.3264 30.3913 15.6707 30.3913 15C30.3913 14.1006 30.034 13.238 29.398 12.602C28.762 11.966 27.8994 11.6087 26.9999 11.6087Z" fill="#72AD11"/>
</svg>
