<svg width="48" height="48" viewBox="0 0 48 48" fill="none" xmlns="http://www.w3.org/2000/svg">
<path d="M46.4 48H3.2C2.35131 48 1.53737 47.6629 0.937258 47.0627C0.337142 46.4626 0 45.6487 0 44.8V1.6C0 1.17565 0.168571 0.768687 0.468629 0.468629C0.768687 0.168571 1.17565 0 1.6 0C2.02435 0 2.43131 0.168571 2.73137 0.468629C3.03143 0.768687 3.2 1.17565 3.2 1.6V44.8H46.4C46.8243 44.8 47.2313 44.9686 47.5314 45.2686C47.8314 45.5687 48 45.9757 48 46.4C48 46.8243 47.8314 47.2313 47.5314 47.5314C47.2313 47.8314 46.8243 48 46.4 48Z" fill="#72AD11"/>
<path d="M13.9999 41.6H9.9999C9.04512 41.6 8.12945 41.2207 7.45432 40.5456C6.77919 39.8705 6.3999 38.9548 6.3999 38V22.8C6.3999 21.8452 6.77919 20.9296 7.45432 20.2544C8.12945 19.5793 9.04512 19.2 9.9999 19.2H13.9999C14.9547 19.2 15.8704 19.5793 16.5455 20.2544C17.2206 20.9296 17.5999 21.8452 17.5999 22.8V38C17.5999 38.9548 17.2206 39.8705 16.5455 40.5456C15.8704 41.2207 14.9547 41.6 13.9999 41.6Z" fill="#72AD11"/>
<path d="M28.4 41.6H24.4C23.4453 41.6 22.5296 41.2207 21.8545 40.5456C21.1793 39.8704 20.8 38.9548 20.8 38V18C20.8 17.0452 21.1793 16.1295 21.8545 15.4544C22.5296 14.7793 23.4453 14.4 24.4 14.4H28.4C29.3548 14.4 30.2705 14.7793 30.9456 15.4544C31.6208 16.1295 32 17.0452 32 18V38C32 38.9548 31.6208 39.8704 30.9456 40.5456C30.2705 41.2207 29.3548 41.6 28.4 41.6Z" fill="#72AD11"/>
<path d="M42.7641 41.6H38.7641C37.8093 41.6 36.8936 41.2207 36.2185 40.5456C35.5433 39.8705 35.1641 38.9548 35.1641 38V11.6C35.1641 10.6452 35.5433 9.72955 36.2185 9.05442C36.8936 8.37928 37.8093 8 38.7641 8H42.7641C43.7188 8 44.6345 8.37928 45.3096 9.05442C45.9848 9.72955 46.3641 10.6452 46.3641 11.6V38C46.3641 38.9548 45.9848 39.8705 45.3096 40.5456C44.6345 41.2207 43.7188 41.6 42.7641 41.6Z" fill="#72AD11"/>
</svg>
