<svg width="50" height="50" viewBox="0 0 50 50" fill="none" xmlns="http://www.w3.org/2000/svg">
<path d="M40.3749 29.9583L37.4999 27.0833V18.75C37.4999 15.4348 36.1829 12.2554 33.8387 9.91117C31.4945 7.56696 28.3151 6.25 24.9999 6.25C21.6847 6.25 18.5053 7.56696 16.1611 9.91117C13.8169 12.2554 12.4999 15.4348 12.4999 18.75V27.0833L9.62491 29.9583C9.00644 30.576 8.58517 31.3633 8.41443 32.2206C8.24369 33.0779 8.33116 33.9665 8.66576 34.774C9.00037 35.5816 9.56707 36.2716 10.2941 36.7569C11.0211 37.2422 11.8758 37.5008 12.7499 37.5H37.2499C38.124 37.5008 38.9787 37.2422 39.7057 36.7569C40.4327 36.2716 40.9994 35.5816 41.334 34.774C41.6687 33.9665 41.7561 33.0779 41.5854 32.2206C41.4146 31.3633 40.9934 30.576 40.3749 29.9583Z" fill="#72AD11"/>
<path d="M22.9166 6.43749C23.6038 6.31126 24.3012 6.24849 24.9999 6.24999C28.3151 6.24999 31.4945 7.56695 33.8388 9.91116C36.183 12.2554 37.4999 15.4348 37.4999 18.75V27.0833L40.3749 29.9583C40.9934 30.576 41.4147 31.3633 41.5854 32.2206C41.7561 33.0779 41.6687 33.9665 41.3341 34.774C40.9995 35.5816 40.4328 36.2716 39.7057 36.7569C38.9787 37.2421 38.124 37.5008 37.2499 37.5H12.7499C11.5785 37.5 10.4551 37.0347 9.62686 36.2064C8.79858 35.3781 8.33325 34.2547 8.33325 33.0833C8.33558 32.4513 8.47043 31.8267 8.72909 31.25" stroke="white" stroke-width="3.125" stroke-linecap="round" stroke-linejoin="round"/>
<path d="M14.5833 12.5V6.25M24.9999 43.75C26.6575 43.75 28.2472 43.0915 29.4193 41.9194C30.5914 40.7473 31.2499 39.1576 31.2499 37.5H18.7499C18.7499 39.1576 19.4084 40.7473 20.5805 41.9194C21.7526 43.0915 23.3423 43.75 24.9999 43.75Z" stroke="white" stroke-width="3.125" stroke-linecap="round" stroke-linejoin="round"/>
<path d="M14.6876 21.875H14.4792" stroke="white" stroke-width="4.16667" stroke-linecap="round" stroke-linejoin="round"/>
</svg>
