<svg width="48" height="52" viewBox="0 0 48 52" fill="none" xmlns="http://www.w3.org/2000/svg">
<path d="M32.8429 3.75913C30.5975 1.33496 27.4615 0 24 0C20.5201 0 17.3737 1.32689 15.1387 3.73605C12.8796 6.17175 11.7788 9.48205 12.0373 13.0566C12.5496 20.1087 17.916 25.8454 24 25.8454C30.0841 25.8454 35.4412 20.1098 35.9616 13.0589C36.2235 9.51666 35.1159 6.21329 32.8429 3.75913Z" fill="#72AD11"/>
<path d="M44.3071 51.6909H3.69287C3.16126 51.6978 2.6348 51.5861 2.15179 51.364C1.66878 51.1418 1.24136 50.8148 0.900635 50.4067C0.150656 49.5102 -0.151644 48.286 0.0721964 47.0479C1.04602 41.6458 4.08516 37.1078 8.86196 33.9222C13.1057 31.0942 18.4813 29.5377 24 29.5377C29.5187 29.5377 34.8943 31.0953 39.138 33.9222C43.9148 37.1067 46.954 41.6446 47.9278 47.0468C48.1516 48.2848 47.8493 49.509 47.0994 50.4055C46.7588 50.8139 46.3314 51.1411 45.8484 51.3635C45.3653 51.5858 44.8388 51.6977 44.3071 51.6909Z" fill="#72AD11"/>
</svg>
